#!OML:ASF H:\Dans Jumps\Project 1\Capture day 1\Session 1\subject.ASF
:FULLY-SPECIFIED
:DEGREES
115
root 0.238495 16.2993 -15.5466 14.2301 -1.64524 -1.84568
lowerback 12.7418 0.259601 -0.30443
upperback 7.7926 0.310702 1.87968
thorax 1.01456 0.0976909 2.08999
lowerneck -14.7266 0.554707 -1.50298
upperneck 20.6099 1.36104 -1.01964
head 8.88159 0.407691 0.0657688
rclavicle 1.88845e-015 6.75868e-015
rhumerus -32.5239 -14.6954 -74.9681
rradius 26.2967
rwrist 26.6037
rhand -19.6713 -26.5324
rfingers 7.12502
rthumb 6.65715 -56.4077
lclavicle 1.88845e-015 6.75868e-015
lhumerus -28.5248 -3.24025 85.967
lradius 21.3639
lwrist 15.4556
lhand -28.7773 -5.25357
lfingers 7.12502
lthumb -2.13659 24.7155
rfemur -45.6149 -3.82974 21.3885
rtibia 53.1493
rfoot -21.7317 -3.70208
rtoes 3.55321
lfemur -45.2272 10.3285 -20.5636
ltibia 52.809
lfoot -20.2666 6.35215
ltoes -4.00843
116
root 0.24059 16.2438 -15.5705 14.3952 -1.63326 -1.81547
lowerback 13.0659 0.259534 -0.338261
upperback 7.82415 0.308564 1.87557
thorax 0.874698 0.0960426 2.10496
lowerneck -14.8212 0.562505 -1.49681
upperneck 20.3137 1.37497 -1.05369
head 8.79785 0.414057 0.054709
rclavicle 7.55382e-015 -7.95139e-016
rhumerus -33.2056 -14.5835 -74.7542
rradius 26.3393
rwrist 26.5154
rhand -19.5869 -26.4582
rfingers 7.12502
rthumb 6.73858 -56.331
lclavicle 7.55382e-015 -7.95139e-016
lhumerus -29.1942 -3.25936 85.9424
lradius 21.3696
lwrist 15.6768
lhand -28.8018 -5.17592
lfingers 7.12502
lthumb -2.16031 24.7929
rfemur -46.4009 -3.81559 21.3699
rtibia 54.0995
rfoot -22.204 -4.02589
rtoes 3.1299
lfemur -46.0028 10.2418 -20.6406
ltibia 53.7257
lfoot -20.6747 6.73968
ltoes -4.55255
117
root 0.242821 16.1869 -15.5936 14.5725 -1.61462 -1.79066
lowerback 13.3766 0.25828 -0.364968
upperback 7.85374 0.305415 1.87663
thorax 0.740297 0.0940331 2.12151
lowerneck -14.9337 0.568765 -1.49423
upperneck 20.0272 1.38759 -1.08551
head 8.7209 0.419622 0.0449521
rclavicle 1.78906e-015 1.47101e-014
rhumerus -33.9085 -14.4891 -74.5177
rradius 26.3691
rwrist 26.466
rhand -19.5182 -26.3502
rfingers 7.12502
rthumb 6.80492 -56.2209
lclavicle 1.78906e-015 1.47101e-014
lhumerus -29.875 -3.26594 85.9233
lradius 21.3665
lwrist 15.8961
lhand -28.8157 -5.08823
lfingers 7.12502
lthumb -2.17369 24.8804
rfemur -47.199 -3.79944 21.3562
rtibia 55.0577
rfoot -22.6788 -4.37983
rtoes 2.74701
lfemur -46.7967 10.1457 -20.7104
ltibia 54.6557
lfoot -21.0944 7.16208
ltoes -5.1834
118
root 0.245205 16.1289 -15.6158 14.7651 -1.59343 -1.76982
lowerback 13.6711 0.257262 -0.387859
upperback 7.88297 0.302789 1.88142
thorax 0.614519 0.0923084 2.13983
lowerneck -15.0665 0.572464 -1.49346
upperneck 19.746 1.39689 -1.11431
head 8.6496 0.423701 0.0362344
rclavicle 1.19271e-015 -1.47101e-014
rhumerus -34.6255 -14.4287 -74.2552
rradius 26.3839
rwrist 26.4577
rhand -19.459 -26.2113
rfingers 7.12502
rthumb 6.86212 -56.0801
lclavicle 1.19271e-015 -1.47101e-014
lhumerus -30.5608 -3.2566 85.9075
lradius 21.3508
lwrist 16.1013
lhand -28.8212 -5.00574
lfingers 7.12502
lthumb -2.17901 24.9629
rfemur -48.0129 -3.78403 21.347
rtibia 56.0217
rfoot -23.1355 -4.76776
rtoes 2.44099
lfemur -47.6102 10.0431 -20.7762
ltibia 55.5955
lfoot -21.5155 7.60554
ltoes -5.86792
119
root 0.247678 16.0697 -15.6373 14.9747 -1.57161 -1.74849
lowerback 13.9504 0.258631 -0.409805
upperback 7.91079 0.303219 1.88667
thorax 0.495507 0.0921255 2.15777
lowerneck -15.214 0.571506 -1.49756
upperneck 19.4633 1.39886 -1.13253
head 8.58052 0.425089 0.0310954
rclavicle -3.77691e-015 -6.36111e-015
rhumerus -35.3622 -14.4018 -73.9675
rradius 26.3911
rwrist 26.4855
rhand -19.407 -26.048
rfingers 7.12502
rthumb 6.91226 -55.9152
lclavicle -3.77691e-015 -6.36111e-015
lhumerus -31.249 -3.23095 85.8895
lradius 21.3235
lwrist 16.2827
lhand -28.7878 -4.9063
lfingers 7.12502
lthumb -2.14678 25.0626
rfemur -48.8458 -3.7706 21.3384
rtibia 56.9896
rfoot -23.5603 -5.19158
rtoes 2.22996
lfemur -48.4452 9.93636 -20.8447
ltibia 56.5413
lfoot -21.9246 8.05696
ltoes -6.56395
120
root 0.250186 16.0096 -15.6582 15.1983 -1.54377 -1.72813
lowerback 14.2186 0.258802 -0.429967
upperback 7.93869 0.30217 1.89401
thorax 0.382814 0.0912084 2.17715
lowerneck -15.3723 0.569147 -1.50004
upperneck 19.1736 1.39815 -1.14885
head 8.51109 0.425599 0.0260454
rclavicle -1.39149e-015 9.54166e-015
rhumerus -36.1147 -14.3841 -73.6662
rradius 26.4065
rwrist 26.5176
rhand -19.3507 -25.8831
rfingers 7.12502
rthumb 6.96665 -55.7485
lclavicle -1.39149e-015 9.54166e-015
lhumerus -31.9399 -3.18449 85.8692
lradius 21.279
lwrist 16.4178
lhand -28.7334 -4.81984
lfingers 7.12502
lthumb -2.09424 25.1496
rfemur -49.6922 -3.76344 21.3324
rtibia 57.9582
rfoot -23.9616 -5.62147
rtoes 2.16888
lfemur -49.2979 9.82141 -20.9122
ltibia 57.4891
lfoot -22.3145 8.49979
ltoes -7.23634
121
root 0.252752 15.9486 -15.6787 15.4367 -1.50884 -1.70725
lowerback 14.479 0.258645 -0.447336
upperback 7.96313 0.300986 1.90195
thorax 0.270903 0.0903544 2.19565
lowerneck -15.5379 0.565458 -1.49428
upperneck 18.8793 1.39428 -1.16826
head 8.44165 0.424941 0.0182488
rclavicle -3.77691e-015 -1.15295e-014
rhumerus -36.8836 -14.3822 -73.3521
rradius 26.4325
rwrist 26.5396
rhand -19.25 -25.7559
rfingers 7.12502
rthumb 7.06382 -55.6181
lclavicle -3.77691e-015 -1.15295e-014
lhumerus -32.6385 -3.12325 85.8474
lradius 21.2143
lwrist 16.4987
lhand -28.6773 -4.7647
lfingers 7.12502
lthumb -2.04003 25.2053
rfemur -50.5559 -3.76618 21.3304
rtibia 58.9241
rfoot -24.3436 -6.05049
rtoes 2.14391
lfemur -50.1677 9.69609 -20.9799
ltibia 58.4356
lfoot -22.685 8.92493
ltoes -7.86089
